PathFileType	4	(X/Y/Z)	/Users/mathieubourgeois/Desktop/Analyse/Traitement/Sujet_03/Data/Transformed_Sujet_03_velo_60.trc
DataRate	CameraRate	NumFrames	NumMarkers	Units	OrigDataRate	OrigDataStartFrame	OrigNumFrames
120.000000	120.000000	4	36	mm	120.000000	1622	1854
Frame#	Time	RFHD			LFHD			RBHD			LBHD			C7			CLAV			RSHO			LSHO			STRN			T10			RBWT			LBWT			RFWT			LFWT			RKNI			LKNI			RKNE			LKNE			LANI			RANI			LANE			RANE			LTOE			RTOE			LHEE			RHEE			RHUM			LHUM			RRAD			LRAD			RWRA			RWRB			LWRA			LWRB			LCAR			RCAR			
		X1	Y1	Z1	X2	Y2	Z2	X3	Y3	Z3	X4	Y4	Z4	X5	Y5	Z5	X6	Y6	Z6	X7	Y7	Z7	X8	Y8	Z8	X9	Y9	Z9	X10	Y10	Z10	X11	Y11	Z11	X12	Y12	Z12	X13	Y13	Z13	X14	Y14	Z14	X15	Y15	Z15	X16	Y16	Z16	X17	Y17	Z17	X18	Y18	Z18	X19	Y19	Z19	X20	Y20	Z20	X21	Y21	Z21	X22	Y22	Z22	X23	Y23	Z23	X24	Y24	Z24	X25	Y25	Z25	X26	Y26	Z26	X27	Y27	Z27	X28	Y28	Z28	X29	Y29	Z29	X30	Y30	Z30	X31	Y31	Z31	X32	Y32	Z32	X33	Y33	Z33	X34	Y34	Z34	X35	Y35	Z35	X36	Y36	Z36	

1623	13.51666666666667	149.1440734863281	1571.101684570312	103.777488708496	131.1273803710938	1566.161499023438	-48.58892440795906	37.204532623291	1641.265014648438	118.2180633544921	10.88013744354248	1652.500244140625	-28.70958137512217	-111.4649124145508	1556.043212890625	44.78423309326161	-80.25089263916016	1403.617797851562	41.90063095092764	-52.14144515991214	1479.547119140625	218.8244476318359	-83.4774932861328	1502.394165039062	-143.8484039306641	-177.5011291503906	1264.950805664062	40.04795455932607	-326.6513671875	1457.528930664062	45.75559616088854	-518.2132568359375	1258.423828125	121.05509185791	-523.3643798828125	1257.919067382812	-2.371487140655658	-366.383544921875	1193.927856445312	176.4002380371092	-371.85400390625	1184.014404296875	-66.55046844482433	-108.2146301269531	740.26220703125	122.8643646240234	-76.84762573242186	812.0286254882812	-81.61991119384771	-125.8957061767578	787.2316284179688	237.7724456787109	-86.65377807617185	852.2064819335938	-191.3040008544922	-378.4930725097656	587.498291015625	-48.41012191772469	-157.4012756347657	369.2977600097656	120.6576614379882	-409.7438354492188	571.6113891601562	-133.7794799804688	-184.0359344482422	350.48095703125	208.0155639648437	-290.8245239257812	402.7880554199219	-82.16274261474616	2.881599903106672	243.750732421875	146.0692291259765	-476.0474243164062	596.4441528320312	-89.02168273925791	-253.8780059814453	329.1053771972656	163.6521301269531	31.43947982788083	1188.67138671875	223.2020263671874	5.998878479003924	1195.201171875	-146.0487670898438	82.59419250488278	1211.8369140625	281.4771728515624	55.73559951782229	1229.011596679688	-201.6653747558595	294.7447204589844	1047.845092773438	210.3389739990234	271.6279296874999	1034.4951171875	288.6350708007812	247.5305938720703	1059.836791992188	-127.3629837036133	223.2764739990235	1043.979125976562	-202.2028350830078	321.3472595214844	1031.829223632812	-223.6701812744141	372.6015930175781	1012.959716796875	304.6624755859375	
1624	13.525	149.3292846679688	1571.205322265625	103.066421508789	131.2203063964844	1566.211791992188	-49.2870292663575	37.41531372070311	1641.390869140625	117.5272903442382	10.97388076782227	1652.553955078125	-29.38174438476572	-111.3366088867188	1556.135864257812	44.22277450561513	-80.02535247802734	1403.730102539062	41.23757553100577	-51.89184570312503	1479.718383789062	218.1858825683593	-83.4148483276367	1502.424682617188	-144.470199584961	-176.9874572753906	1264.973754882812	39.49893188476553	-326.5014953613281	1457.504150390625	45.49738693237291	-517.8402709960938	1258.328979492188	121.2893600463866	-523.2222900390625	1257.982177734375	-2.137191534042499	-366.0437622070312	1193.606689453125	176.4214935302733	-371.6358032226562	1184.298095703125	-66.52142333984386	-114.4474411010742	733.2594604492188	122.3173751831054	-71.88753509521483	819.5753173828125	-82.23260498046882	-131.5550537109375	780.749755859375	237.3824005126952	-82.17140960693357	859.4401245117188	-191.873519897461	-373.6673583984375	595.3886108398438	-48.41267395019539	-162.2003326416016	362.0233459472656	120.6438751220703	-404.9288330078125	579.3390502929688	-133.813217163086	-188.7982025146485	343.3128356933594	208.0088806152343	-286.877197265625	410.4080505371094	-81.38928985595709	-2.317184686660784	235.6154174804688	146.010025024414	-471.3344421386719	604.04345703125	-88.97794342041026	-258.6730651855469	322.235595703125	163.8836212158203	31.55757331848142	1188.772216796875	222.985626220703	6.002741336822528	1195.190063476562	-146.4146270751954	82.70542907714841	1211.943115234375	281.2458496093749	55.7372512817383	1228.919677734375	-202.0419921875001	294.8013610839844	1047.806274414062	210.3376312255859	271.6596374511718	1034.518188476562	288.639404296875	246.7035064697266	1059.56689453125	-127.1831436157227	223.2942504882813	1043.930297851562	-202.2364807128907	321.3471374511719	1031.79248046875	-223.6739196777344	372.6434631347656	1012.972900390625	304.6732177734375	
1625	13.53333333333333	149.4616394042969	1571.284057617188	102.3730392456054	131.3045501708984	1566.263916015625	-49.92111587524422	37.57897186279295	1641.491455078125	116.8957519531249	11.07872581481934	1652.601928710938	-30.03600311279307	-111.1993637084961	1556.214965820312	43.60471725463857	-79.81175994873047	1403.835571289062	40.65911865234366	-51.71619033813479	1479.844360351562	217.564483642578	-83.43711090087889	1502.422729492188	-145.130096435547	-176.7747802734375	1265.009887695312	39.02346420288076	-326.3586120605469	1457.4736328125	45.21988677978502	-517.4835205078125	1258.2001953125	121.5617828369139	-523.06884765625	1258.020874023438	-1.917034626007221	-365.7139892578125	1193.262939453125	176.4014282226561	-371.4670715332031	1184.567504882812	-66.48757171630871	-120.6863021850586	726.5333251953125	121.7816009521484	-69.39402008056639	828.2103881835938	-82.8255691528321	-137.2298889160157	774.595458984375	237.0146331787109	-77.80382537841794	866.614013671875	-192.0786743164063	-368.5570983886719	602.9194946289062	-48.43393707275398	-167.3823852539063	355.119384765625	120.6286697387695	-399.8796691894531	586.6563720703125	-133.7415618896485	-193.9730072021485	336.5281066894531	208.0156097412109	-279.1936340332031	419.1519775390625	-82.36233520507818	-7.934493541717547	227.8058319091797	145.9146881103516	-466.3993835449219	611.1078491210938	-88.89479064941416	-263.7671508789062	315.8109130859375	164.0311584472656	31.60704421997067	1188.818603515625	222.8243560791015	5.97906446456911	1195.186645507812	-146.7516021728516	82.78853607177732	1212.04052734375	281.0569458007812	55.71745681762697	1228.873168945312	-202.3944854736329	294.8113403320312	1047.771728515625	210.3174133300781	271.6760253906249	1034.544677734375	288.6193542480469	246.6698608398438	1059.590576171875	-127.2336883544922	223.2952728271485	1043.878295898438	-202.281967163086	321.3469543457031	1031.771728515625	-223.6939544677735	372.6445312499999	1012.979370117188	304.6744079589844	
1626	13.54166666666667	149.5965270996094	1571.327270507812	101.7252807617187	131.3773193359375	1566.29833984375	-50.62970733642586	37.74705505371092	1641.566284179688	116.2558822631835	11.18609046936036	1652.6640625	-30.60804748535166	-111.082160949707	1556.274658203125	43.01190948486317	-79.62174987792969	1403.928466796875	40.09824371337881	-51.525260925293	1479.961303710938	216.9556884765624	-83.45959472656249	1502.44775390625	-145.7593383789063	-176.5257568359375	1264.993286132812	38.47300720214834	-326.2362976074219	1457.446044921875	44.9784011840819	-517.1644287109375	1258.067138671875	121.7745971679686	-522.9425659179688	1258.072265625	-1.721614956855915	-365.4055480957031	1192.939453125	176.3863830566405	-371.2698364257812	1184.835083007812	-66.44415283203136	-126.8115158081055	720.2010498046875	121.2998886108398	-64.92336273193358	835.0278930664062	-82.8622131347657	-142.8036193847657	768.7410278320312	236.6384887695312	-74.18721008300778	874.7045288085938	-192.3638305664063	-362.6188049316406	609.7095947265625	-49.49037170410164	-172.7503356933594	348.6031494140625	120.5769653320312	-394.5850830078125	593.6179809570312	-133.5958099365235	-199.4999237060547	330.2051696777344	208.0124206542968	-272.92626953125	426.8545227050781	-82.26372528076178	-13.96806812286379	220.1759185791016	145.8713531494141	-461.3021545410156	617.6831665039062	-88.67670440673838	-269.2183532714844	309.8513488769531	164.1245422363281	31.6257629394531	1188.835083007812	222.7216644287109	5.942298889160174	1195.182250976562	-147.0157623291016	82.7973937988281	1212.10791015625	280.9269714355468	55.66979217529299	1228.776245117188	-202.7202453613282	294.8069152832031	1047.744873046875	210.2893981933593	271.6681823730468	1034.544677734375	288.5902099609375	246.6045227050782	1059.616333007812	-127.305892944336	223.2841949462891	1043.825073242188	-202.3495025634766	321.3317565917969	1031.742309570312	-223.7323608398438	372.6445007324218	1012.992614746094	304.6636657714844	
